<?xml version="1.0" standalone="no"?><svg xmlns="http://www.w3.org/2000/svg" viewBox="0 0 1440 320"><path fill="#3f51b5" fill-opacity="1" d="M0,32L34.3,32C68.6,32,137,32,206,37.3C274.3,43,343,53,411,64C480,75,549,85,617,80C685.7,75,754,53,823,64C891.4,75,960,117,1029,128C1097.1,139,1166,117,1234,96C1302.9,75,1371,53,1406,42.7L1440,32L1440,320L1405.7,320C1371.4,320,1303,320,1234,320C1165.7,320,1097,320,1029,320C960,320,891,320,823,320C754.3,320,686,320,617,320C548.6,320,480,320,411,320C342.9,320,274,320,206,320C137.1,320,69,320,34,320L0,320Z"></path></svg>